<svg width="29" height="31" viewBox="0 0 29 31" fill="none" xmlns="http://www.w3.org/2000/svg">
<g filter="url(#filter0_d)">
<mask id="path-1-outside-1" maskUnits="userSpaceOnUse" x="2" y="1" width="26" height="27" fill="black">
<rect fill="white" x="2" y="1" width="26" height="27"/>
<path fill-rule="evenodd" clip-rule="evenodd" d="M10.5255 25.5418C11.3668 26.2588 12.4447 26.6188 13.55 26.6188H14.4896C15.2776 26.6188 15.9811 26.1792 16.6846 25.7395C17.3881 25.2999 18.0917 24.8603 18.8797 24.8603C19.4793 24.8603 19.8983 25.3434 20.2971 25.8031C20.6592 26.2206 21.0046 26.6188 21.4534 26.6188C22.3572 26.6188 22.6796 25.6617 23.0132 24.6715C23.2049 24.1022 23.4004 23.522 23.7121 23.1063L25.0344 21.3433C26.0621 19.9731 26.0439 19.5135 25.9697 17.6415C25.9448 17.0126 25.9136 16.2244 25.9136 15.1886C25.9136 11.0698 25.0344 10.7924 24.1551 10.7924C23.7199 10.7924 23.7244 11.2233 23.7289 11.6584C23.7335 12.1024 23.7381 12.5509 23.2759 12.5509C22.8923 12.5509 22.819 11.9546 22.7338 11.2618C22.6158 10.3016 22.475 9.15598 21.4534 9.15598C21.2917 9.15598 21.1379 9.15434 20.992 9.15278C19.5519 9.13739 18.8797 9.13021 18.8797 10.7924C18.8797 12.5536 18.8797 12.5536 18.0966 12.5511L18.0004 12.5509C17.6353 12.5509 17.5708 11.9654 17.4953 11.2807C17.3891 10.3167 17.2611 9.15598 16.2419 9.15598C14.9725 9.15598 14.1898 9.41707 13.8581 10.0009C13.7344 10.2187 13.6734 10.4815 13.6734 10.7924C13.6734 11.9365 13.4114 12.5509 12.725 12.5509C12.3979 12.5509 12.3825 11.7523 12.3609 10.6308C12.3372 9.39879 12.306 7.77703 11.8457 6.39621C11.6608 5.84157 11.5148 5.32581 11.3822 4.85709L11.3821 4.85708C10.8838 3.09671 10.5734 2 9.0969 2C7.22732 2 8.1816 7.32538 9.0969 9.84245C10.0122 12.3595 10.6987 16.7072 9.78338 17.1649C9.24259 17.4352 8.69848 16.5075 8.06058 15.4198C7.6188 14.6666 7.13204 13.8366 6.57027 13.2748C5.19732 11.9019 3.51095 12.4788 3.0533 14.3094C2.71294 15.6708 4.06471 17.6321 5.34472 19.4893C5.78582 20.1293 6.2184 20.7569 6.57027 21.3433C7.42541 22.7686 9.26189 24.465 10.5255 25.5418ZM18.0003 23.1018C17.5289 23.1018 17.1211 21.8197 17.1211 21.3433V17.8264C17.1211 17.342 17.5147 16.0679 18.0003 16.0679C18.4717 16.0679 18.8796 17.35 18.8796 17.8264V21.3433C18.8796 21.8277 18.4859 23.1018 18.0003 23.1018ZM20.6367 21.3433C20.6367 21.8197 21.0446 23.1018 21.516 23.1018C22.0016 23.1018 22.3952 21.8277 22.3952 21.3433V17.8264C22.3952 17.35 21.9874 16.0679 21.516 16.0679C21.0304 16.0679 20.6367 17.342 20.6367 17.8264V21.3433ZM14.4847 23.1018C14.0133 23.1018 13.6055 21.8197 13.6055 21.3433V17.8264C13.6055 17.342 13.9991 16.0679 14.4847 16.0679C14.9561 16.0679 15.364 17.35 15.364 17.8264V21.3433C15.364 21.8277 14.9703 23.1018 14.4847 23.1018Z"/>
</mask>
<path fill-rule="evenodd" clip-rule="evenodd" d="M10.5255 25.5418C11.3668 26.2588 12.4447 26.6188 13.55 26.6188H14.4896C15.2776 26.6188 15.9811 26.1792 16.6846 25.7395C17.3881 25.2999 18.0917 24.8603 18.8797 24.8603C19.4793 24.8603 19.8983 25.3434 20.2971 25.8031C20.6592 26.2206 21.0046 26.6188 21.4534 26.6188C22.3572 26.6188 22.6796 25.6617 23.0132 24.6715C23.2049 24.1022 23.4004 23.522 23.7121 23.1063L25.0344 21.3433C26.0621 19.9731 26.0439 19.5135 25.9697 17.6415C25.9448 17.0126 25.9136 16.2244 25.9136 15.1886C25.9136 11.0698 25.0344 10.7924 24.1551 10.7924C23.7199 10.7924 23.7244 11.2233 23.7289 11.6584C23.7335 12.1024 23.7381 12.5509 23.2759 12.5509C22.8923 12.5509 22.819 11.9546 22.7338 11.2618C22.6158 10.3016 22.475 9.15598 21.4534 9.15598C21.2917 9.15598 21.1379 9.15434 20.992 9.15278C19.5519 9.13739 18.8797 9.13021 18.8797 10.7924C18.8797 12.5536 18.8797 12.5536 18.0966 12.5511L18.0004 12.5509C17.6353 12.5509 17.5708 11.9654 17.4953 11.2807C17.3891 10.3167 17.2611 9.15598 16.2419 9.15598C14.9725 9.15598 14.1898 9.41707 13.8581 10.0009C13.7344 10.2187 13.6734 10.4815 13.6734 10.7924C13.6734 11.9365 13.4114 12.5509 12.725 12.5509C12.3979 12.5509 12.3825 11.7523 12.3609 10.6308C12.3372 9.39879 12.306 7.77703 11.8457 6.39621C11.6608 5.84157 11.5148 5.32581 11.3822 4.85709L11.3821 4.85708C10.8838 3.09671 10.5734 2 9.0969 2C7.22732 2 8.1816 7.32538 9.0969 9.84245C10.0122 12.3595 10.6987 16.7072 9.78338 17.1649C9.24259 17.4352 8.69848 16.5075 8.06058 15.4198C7.6188 14.6666 7.13204 13.8366 6.57027 13.2748C5.19732 11.9019 3.51095 12.4788 3.0533 14.3094C2.71294 15.6708 4.06471 17.6321 5.34472 19.4893C5.78582 20.1293 6.2184 20.7569 6.57027 21.3433C7.42541 22.7686 9.26189 24.465 10.5255 25.5418ZM18.0003 23.1018C17.5289 23.1018 17.1211 21.8197 17.1211 21.3433V17.8264C17.1211 17.342 17.5147 16.0679 18.0003 16.0679C18.4717 16.0679 18.8796 17.35 18.8796 17.8264V21.3433C18.8796 21.8277 18.4859 23.1018 18.0003 23.1018ZM20.6367 21.3433C20.6367 21.8197 21.0446 23.1018 21.516 23.1018C22.0016 23.1018 22.3952 21.8277 22.3952 21.3433V17.8264C22.3952 17.35 21.9874 16.0679 21.516 16.0679C21.0304 16.0679 20.6367 17.342 20.6367 17.8264V21.3433ZM14.4847 23.1018C14.0133 23.1018 13.6055 21.8197 13.6055 21.3433V17.8264C13.6055 17.342 13.9991 16.0679 14.4847 16.0679C14.9561 16.0679 15.364 17.35 15.364 17.8264V21.3433C15.364 21.8277 14.9703 23.1018 14.4847 23.1018Z" fill="white"/>
<path d="M10.5255 25.5418L11.1741 24.7807H11.1741L10.5255 25.5418ZM18.8797 24.8603V25.8603H18.8797L18.8797 24.8603ZM20.2971 25.8031L21.0525 25.1479L20.2971 25.8031ZM23.0132 24.6715L23.9608 24.9907V24.9907L23.0132 24.6715ZM23.7121 23.1063L22.9121 22.5063L22.9121 22.5063L23.7121 23.1063ZM25.0344 21.3433L24.2344 20.7433L25.0344 21.3433ZM25.9697 17.6415L26.9689 17.6019L25.9697 17.6415ZM25.9136 15.1886H26.9136H25.9136ZM23.7289 11.6584L24.7288 11.6481V11.6481L23.7289 11.6584ZM22.7338 11.2618L23.7263 11.1398V11.1398L22.7338 11.2618ZM20.992 9.15278L21.0027 8.15284L20.992 9.15278ZM18.8797 10.7924H17.8797V10.7924L18.8797 10.7924ZM18.0966 12.5511L18.0999 11.5511L18.0988 11.5511L18.0966 12.5511ZM18.0004 12.5509L18.0025 11.5509H18.0004V12.5509ZM17.4953 11.2807L18.4893 11.1712V11.1712L17.4953 11.2807ZM13.8581 10.0009L14.7276 10.4949L13.8581 10.0009ZM13.6734 10.7924L12.6734 10.7924V10.7924H13.6734ZM12.725 12.5509L12.725 11.5509H12.725V12.5509ZM12.3609 10.6308L11.3611 10.6501V10.6501L12.3609 10.6308ZM11.8457 6.39621L12.7944 6.07998L12.7944 6.07998L11.8457 6.39621ZM11.3822 4.85709L12.3443 4.58471L12.3344 4.54962L12.3219 4.51535L11.3822 4.85709ZM11.3821 4.85708L10.42 5.12946L10.4299 5.16455L10.4424 5.19882L11.3821 4.85708ZM9.0969 9.84245L10.0367 9.50071L9.0969 9.84245ZM9.78338 17.1649L9.33616 16.2704H9.33616L9.78338 17.1649ZM8.06058 15.4198L8.92317 14.9139L8.06058 15.4198ZM6.57027 13.2748L5.86316 13.9819H5.86316L6.57027 13.2748ZM3.0533 14.3094L4.02344 14.5519L3.0533 14.3094ZM5.34472 19.4893L4.52134 20.0568L5.34472 19.4893ZM6.57027 21.3433L5.71277 21.8578H5.71277L6.57027 21.3433ZM13.55 25.6188C12.6592 25.6188 11.8176 25.3291 11.1741 24.7807L9.87687 26.3029C10.916 27.1885 12.2301 27.6188 13.55 27.6188V25.6188ZM14.4896 25.6188H13.55V27.6188H14.4896V25.6188ZM16.1547 24.8915C15.3922 25.368 14.9387 25.6188 14.4896 25.6188V27.6188C15.6165 27.6188 16.57 26.9904 17.2146 26.5876L16.1547 24.8915ZM18.8797 23.8603C17.7528 23.8603 16.7993 24.4887 16.1547 24.8915L17.2146 26.5876C17.977 26.1111 18.4305 25.8603 18.8797 25.8603V23.8603ZM21.0525 25.1479C20.8672 24.9342 20.5984 24.619 20.277 24.3694C19.9368 24.1053 19.4716 23.8603 18.8797 23.8603L18.8797 25.8603C18.8874 25.8603 18.9315 25.8569 19.0504 25.9492C19.1882 26.0561 19.3283 26.2123 19.5417 26.4584L21.0525 25.1479ZM21.4534 25.6188C21.546 25.6188 21.5646 25.6652 21.4714 25.5898C21.3659 25.5045 21.2486 25.3739 21.0525 25.1479L19.5417 26.4584C19.7077 26.6498 19.9442 26.927 20.2141 27.1452C20.4963 27.3733 20.912 27.6188 21.4534 27.6188V25.6188ZM22.0655 24.3522C21.8865 24.8836 21.7607 25.2369 21.6079 25.4726C21.5409 25.576 21.4978 25.608 21.4881 25.6143C21.4858 25.6158 21.4848 25.6162 21.485 25.6161C21.4852 25.616 21.4854 25.616 21.4852 25.616C21.4849 25.6161 21.4828 25.6167 21.4783 25.6174C21.4738 25.618 21.4657 25.6188 21.4534 25.6188V27.6188C22.3522 27.6188 22.9343 27.1035 23.2863 26.5603C23.6041 26.0699 23.8062 25.4496 23.9608 24.9907L22.0655 24.3522ZM22.9121 22.5063C22.4844 23.0766 22.2421 23.8278 22.0655 24.3522L23.9608 24.9907C24.1677 24.3766 24.3164 23.9673 24.5121 23.7063L22.9121 22.5063ZM24.2344 20.7433L22.9121 22.5063L24.5121 23.7063L25.8344 21.9433L24.2344 20.7433ZM24.9705 17.6811C25.0095 18.6651 25.0193 19.0994 24.9387 19.4653C24.87 19.7767 24.7191 20.097 24.2344 20.7433L25.8344 21.9433C26.3773 21.2194 26.7311 20.6248 26.8918 19.8958C27.0404 19.2213 27.0041 18.4899 26.9689 17.6019L24.9705 17.6811ZM24.9136 15.1886C24.9136 16.2454 24.9455 17.0503 24.9705 17.6811L26.9689 17.6019C26.9441 16.975 26.9136 16.2034 26.9136 15.1886H24.9136ZM24.1551 11.7924C24.3356 11.7924 24.3866 11.8104 24.3992 11.8159C24.4006 11.8166 24.4041 11.8176 24.4135 11.8265C24.4245 11.8369 24.4536 11.8674 24.4932 11.9375C24.6838 12.2752 24.9136 13.1389 24.9136 15.1886H26.9136C26.9136 13.1196 26.7038 11.7852 26.2349 10.9544C25.9769 10.4973 25.63 10.1718 25.2024 9.98429C24.8028 9.8091 24.4142 9.79242 24.1551 9.79242V11.7924ZM24.7288 11.6481C24.7276 11.5321 24.7273 11.4581 24.7308 11.396C24.7344 11.3313 24.7402 11.3344 24.7281 11.3715C24.7139 11.4151 24.662 11.5441 24.518 11.6561C24.3662 11.7741 24.2167 11.7924 24.1551 11.7924V9.79242C23.876 9.79242 23.5638 9.86463 23.2906 10.077C23.0251 10.2834 22.893 10.5473 22.8261 10.7529C22.7116 11.105 22.7273 11.5091 22.7289 11.6688L24.7288 11.6481ZM23.2759 13.5509C23.5575 13.5509 23.8711 13.4799 24.1471 13.2703C24.4174 13.065 24.5551 12.7999 24.6258 12.5883C24.7468 12.2266 24.7305 11.8116 24.7288 11.6481L22.7289 11.6688C22.7302 11.7871 22.7305 11.8628 22.7268 11.9265C22.7229 11.9927 22.7168 11.9906 22.729 11.9541C22.7438 11.91 22.7962 11.7848 22.9375 11.6775C23.0845 11.5659 23.2254 11.5509 23.2759 11.5509V13.5509ZM21.7413 11.3838C21.7793 11.6935 21.8284 12.1276 21.9423 12.4764C22.0008 12.6558 22.1051 12.9089 22.3095 13.1285C22.5449 13.3811 22.8798 13.5509 23.2759 13.5509V11.5509C23.3617 11.5509 23.4606 11.5685 23.5594 11.6134C23.6566 11.6575 23.7269 11.7158 23.7731 11.7654C23.8533 11.8514 23.862 11.9122 23.8436 11.8559C23.8285 11.8098 23.8092 11.7287 23.7876 11.5956C23.7664 11.4647 23.7482 11.3175 23.7263 11.1398L21.7413 11.3838ZM21.4534 10.156C21.507 10.156 21.488 10.1656 21.4571 10.1418C21.4415 10.1298 21.4702 10.1442 21.5161 10.2493C21.6236 10.4952 21.6772 10.8623 21.7413 11.3838L23.7263 11.1398C23.6724 10.7012 23.5966 10.0153 23.3487 9.44831C23.217 9.14702 23.0116 8.81501 22.6786 8.55816C22.3303 8.28951 21.9106 8.15598 21.4534 8.15598V10.156ZM20.9813 10.1527C21.1266 10.1543 21.2856 10.156 21.4534 10.156V8.15598C21.2978 8.15598 21.1492 8.1544 21.0027 8.15284L20.9813 10.1527ZM19.8797 10.7924C19.8797 10.4286 19.9187 10.2516 19.9459 10.1776C19.961 10.1363 19.9502 10.1777 19.9015 10.2062C19.8878 10.2143 19.9339 10.183 20.1412 10.165C20.3478 10.147 20.6057 10.1487 20.9813 10.1527L21.0027 8.15284C20.6582 8.14916 20.2921 8.14423 19.9676 8.17251C19.6438 8.20072 19.2519 8.26868 18.89 8.48082C18.0465 8.97536 17.8797 9.90165 17.8797 10.7924H19.8797ZM18.0934 13.5511C18.236 13.5516 18.5305 13.5597 18.7888 13.4959C18.9465 13.4571 19.1364 13.3836 19.3163 13.2385C19.4989 13.0913 19.6184 12.9128 19.6953 12.7399C19.8277 12.4427 19.8539 12.1084 19.8662 11.8599C19.88 11.5816 19.8797 11.2218 19.8797 10.7924L17.8797 10.7924C17.8797 11.2437 17.8794 11.5443 17.8686 11.7612C17.8634 11.8671 17.8566 11.93 17.8509 11.9654C17.8449 12.0034 17.8446 11.9794 17.8682 11.9264C17.8963 11.8635 17.9546 11.7674 18.0607 11.6818C18.1641 11.5984 18.2623 11.5659 18.3098 11.5542C18.3489 11.5445 18.3607 11.5474 18.3125 11.5494C18.2652 11.5514 18.2046 11.5515 18.0999 11.5511L18.0934 13.5511ZM17.9983 13.5509L18.0945 13.5511L18.0988 11.5511L18.0025 11.5509L17.9983 13.5509ZM16.5013 11.3903C16.5351 11.6964 16.578 12.1233 16.6833 12.466C16.737 12.6411 16.8346 12.8936 17.0322 13.1148C17.2616 13.3717 17.5972 13.5509 18.0004 13.5509V11.5509C18.0931 11.5509 18.1986 11.5706 18.3028 11.6196C18.4049 11.6676 18.4773 11.7304 18.5239 11.7826C18.6043 11.8727 18.6127 11.936 18.5952 11.8791C18.5812 11.8336 18.5634 11.7534 18.5439 11.6217C18.5248 11.4924 18.5086 11.3467 18.4893 11.1712L16.5013 11.3903ZM16.2419 10.156C16.2913 10.156 16.2674 10.1643 16.2333 10.1374C16.2156 10.1234 16.2439 10.1369 16.2891 10.2444C16.3942 10.4943 16.4436 10.8668 16.5013 11.3903L18.4893 11.1712C18.4407 10.7306 18.3731 10.0407 18.1328 9.46928C18.0054 9.16612 17.804 8.82918 17.4723 8.5674C17.1243 8.29275 16.7022 8.15598 16.2419 8.15598V10.156ZM14.7276 10.4949C14.7607 10.4366 14.9911 10.156 16.2419 10.156V8.15598C14.954 8.15598 13.6189 8.39754 12.9887 9.50687L14.7276 10.4949ZM14.6734 10.7924C14.6734 10.6119 14.7083 10.5288 14.7276 10.4949L12.9887 9.50687C12.7604 9.90858 12.6734 10.3511 12.6734 10.7924L14.6734 10.7924ZM12.725 13.5509C13.0502 13.5509 13.3858 13.4764 13.6917 13.2857C13.9961 13.096 14.2063 12.8317 14.3474 12.5551C14.6102 12.0399 14.6734 11.4023 14.6734 10.7924H12.6734C12.6734 11.0436 12.6588 11.2402 12.6345 11.3904C12.6098 11.5435 12.5796 11.6193 12.5658 11.6463C12.5556 11.6664 12.5716 11.6272 12.6338 11.5884C12.6976 11.5486 12.743 11.5509 12.725 11.5509L12.725 13.5509ZM11.3611 10.6501C11.3714 11.1843 11.3803 11.7362 11.438 12.1497C11.4656 12.3476 11.5168 12.6203 11.6449 12.868C11.7863 13.1414 12.1253 13.5509 12.725 13.5509V11.5509C12.9055 11.5509 13.0806 11.6118 13.2195 11.7168C13.3429 11.8102 13.4011 11.91 13.4214 11.9493C13.4539 12.0121 13.4386 12.0151 13.4188 11.8732C13.3816 11.607 13.372 11.1989 13.3607 10.6116L11.3611 10.6501ZM10.897 6.71244C11.3007 7.92357 11.3368 9.38815 11.3611 10.6501L13.3607 10.6116C13.3376 9.40943 13.3112 7.63049 12.7944 6.07998L10.897 6.71244ZM10.42 5.12947C10.5522 5.59647 10.7039 6.13309 10.897 6.71244L12.7944 6.07998C12.6178 5.55005 12.4775 5.05514 12.3443 4.58471L10.42 5.12947ZM10.4424 5.19882L10.4424 5.19883L12.3219 4.51535L12.3219 4.51533L10.4424 5.19882ZM9.0969 3C9.34055 3 9.46728 3.0445 9.53643 3.08135C9.60322 3.11695 9.6796 3.17894 9.77037 3.31721C9.99107 3.65337 10.1543 4.19094 10.42 5.12946L12.3443 4.5847C12.1117 3.76284 11.8705 2.87187 11.4423 2.21959C11.2086 1.86364 10.8994 1.54143 10.4771 1.31638C10.0572 1.09259 9.59148 1 9.0969 1V3ZM10.0367 9.50071C9.60709 8.3193 9.16187 6.44931 9.04996 4.90504C8.99301 4.11919 9.03088 3.51891 9.13847 3.15479C9.19098 2.97709 9.2383 2.93227 9.22849 2.94205C9.19358 2.97684 9.12992 3 9.0969 3V1C8.59649 1 8.15368 1.18958 7.81668 1.52544C7.50478 1.83628 7.32709 2.22716 7.22045 2.58805C7.00975 3.3011 6.99286 4.18948 7.05519 5.04961C7.18185 6.7973 7.67141 8.84854 8.15711 10.1842L10.0367 9.50071ZM10.2306 18.0593C10.6556 17.8468 10.8717 17.471 10.9827 17.1935C11.0985 16.904 11.1564 16.5834 11.1862 16.2791C11.2463 15.6656 11.2093 14.9202 11.1198 14.1591C10.9398 12.6296 10.5228 10.8374 10.0367 9.50071L8.15711 10.1842C8.58634 11.3646 8.97017 13.0048 9.13346 14.3928C9.21554 15.0905 9.23578 15.6751 9.19573 16.0842C9.17547 16.2912 9.14405 16.4049 9.12574 16.4507C9.10267 16.5083 9.13999 16.3685 9.33616 16.2704L10.2306 18.0593ZM7.19798 15.9257C7.49962 16.44 7.84333 17.0329 8.19576 17.4484C8.37169 17.6559 8.61868 17.9046 8.94208 18.0603C9.31468 18.2396 9.77832 18.2854 10.2306 18.0593L9.33616 16.2704C9.51804 16.1795 9.71088 16.2107 9.80942 16.2581C9.85877 16.2819 9.82847 16.2815 9.72103 16.1548C9.50673 15.9021 9.25943 15.4873 8.92317 14.9139L7.19798 15.9257ZM5.86316 13.9819C6.31586 14.4346 6.73727 15.1402 7.19798 15.9257L8.92317 14.9139C8.50033 14.1929 7.94823 13.2386 7.27737 12.5677L5.86316 13.9819ZM4.02344 14.5519C4.19034 13.8843 4.52892 13.6189 4.76438 13.546C4.98055 13.4791 5.37422 13.493 5.86316 13.9819L7.27737 12.5677C6.39336 11.6837 5.25738 11.2996 4.17271 11.6355C3.10734 11.9655 2.37391 12.9038 2.08316 14.0669L4.02344 14.5519ZM6.16809 18.9218C5.51801 17.9786 4.90163 17.0812 4.48214 16.259C4.04113 15.3945 3.94801 14.8536 4.02344 14.5519L2.08316 14.0669C1.81822 15.1266 2.23082 16.247 2.7006 17.1679C3.1919 18.1309 3.89142 19.1428 4.52134 20.0568L6.16809 18.9218ZM7.42776 20.8288C7.05653 20.2101 6.60468 19.5552 6.16809 18.9218L4.52134 20.0568C4.96695 20.7033 5.38026 21.3036 5.71277 21.8578L7.42776 20.8288ZM11.1741 24.7807C9.90006 23.695 8.1874 22.0949 7.42776 20.8288L5.71277 21.8578C6.66343 23.4423 8.62372 25.235 9.87687 26.3029L11.1741 24.7807ZM16.1211 21.3433C16.1211 21.7631 16.2725 22.3408 16.463 22.791C16.5624 23.0257 16.7016 23.297 16.8904 23.5276C17.0509 23.7236 17.4212 24.1018 18.0003 24.1018V22.1018C18.1762 22.1018 18.3028 22.1629 18.366 22.2034C18.425 22.2411 18.4466 22.2712 18.4378 22.2605C18.4176 22.2358 18.3664 22.1567 18.3048 22.0114C18.2472 21.8752 18.1978 21.7219 18.1638 21.5824C18.147 21.5135 18.1355 21.4542 18.1285 21.4076C18.121 21.3577 18.1211 21.3378 18.1211 21.3433H16.1211ZM16.1211 17.8264V21.3433H18.1211V17.8264H16.1211ZM18.0003 15.0679C17.4281 15.0679 17.0571 15.4324 16.8879 15.6367C16.6954 15.8692 16.5555 16.1427 16.4565 16.3785C16.2655 16.8336 16.1211 17.4087 16.1211 17.8264H18.1211C18.1211 17.828 18.1214 17.8052 18.1287 17.7545C18.1356 17.7068 18.1469 17.6469 18.1632 17.5781C18.1963 17.4384 18.2445 17.2865 18.3007 17.1525C18.3608 17.0092 18.4104 16.9339 18.4283 16.9123C18.4356 16.9035 18.413 16.9341 18.3533 16.9715C18.2888 17.0118 18.1666 17.0679 18.0003 17.0679V15.0679ZM19.8796 17.8264C19.8796 17.4066 19.7282 16.8289 19.5376 16.3787C19.4383 16.144 19.2991 15.8727 19.1103 15.6421C18.9498 15.4461 18.5794 15.0679 18.0003 15.0679V17.0679C17.8245 17.0679 17.6978 17.0067 17.6346 16.9663C17.5756 16.9286 17.5541 16.8985 17.5629 16.9092C17.5831 16.9339 17.6343 17.0129 17.6958 17.1583C17.7535 17.2945 17.8029 17.4478 17.8369 17.5873C17.8537 17.6562 17.8652 17.7155 17.8722 17.7621C17.8796 17.812 17.8796 17.8319 17.8796 17.8264H19.8796ZM19.8796 21.3433V17.8264H17.8796V21.3433H19.8796ZM18.0003 24.1018C18.5726 24.1018 18.9435 23.7373 19.1128 23.533C19.3053 23.3005 19.4452 23.027 19.5441 22.7912C19.7351 22.3361 19.8796 21.761 19.8796 21.3433H17.8796C17.8796 21.3417 17.8793 21.3645 17.872 21.4152C17.8651 21.4628 17.8538 21.5228 17.8375 21.5916C17.8043 21.7313 17.7562 21.8832 17.7 22.0172C17.6398 22.1605 17.5902 22.2358 17.5724 22.2573C17.5651 22.2662 17.5877 22.2355 17.6474 22.1982C17.7119 22.1579 17.834 22.1018 18.0003 22.1018V24.1018ZM21.516 22.1018C21.6918 22.1018 21.8185 22.1629 21.8817 22.2034C21.9407 22.2411 21.9622 22.2712 21.9534 22.2605C21.9332 22.2358 21.882 22.1567 21.8205 22.0114C21.7628 21.8752 21.7134 21.7219 21.6794 21.5824C21.6626 21.5135 21.6511 21.4542 21.6441 21.4076C21.6367 21.3577 21.6367 21.3378 21.6367 21.3433H19.6367C19.6367 21.7631 19.7881 22.3408 19.9787 22.791C20.078 23.0257 20.2172 23.297 20.406 23.5276C20.5665 23.7236 20.9368 24.1018 21.516 24.1018V22.1018ZM21.3952 21.3433C21.3952 21.3417 21.3949 21.3645 21.3876 21.4152C21.3807 21.4628 21.3694 21.5228 21.3531 21.5916C21.32 21.7313 21.2718 21.8832 21.2156 22.0172C21.1555 22.1605 21.1059 22.2358 21.088 22.2573C21.0807 22.2662 21.1033 22.2355 21.163 22.1982C21.2275 22.1579 21.3497 22.1018 21.516 22.1018V24.1018C22.0882 24.1018 22.4592 23.7373 22.6284 23.533C22.8209 23.3005 22.9608 23.027 23.0597 22.7912C23.2508 22.3361 23.3952 21.761 23.3952 21.3433H21.3952ZM21.3952 17.8264V21.3433H23.3952V17.8264H21.3952ZM21.516 17.0679C21.3401 17.0679 21.2135 17.0067 21.1503 16.9663C21.0913 16.9286 21.0697 16.8985 21.0785 16.9092C21.0987 16.9339 21.1499 17.0129 21.2115 17.1583C21.2691 17.2945 21.3185 17.4478 21.3525 17.5873C21.3693 17.6562 21.3808 17.7155 21.3878 17.7621C21.3953 17.812 21.3952 17.8319 21.3952 17.8264H23.3952C23.3952 17.4066 23.2438 16.8289 23.0532 16.3787C22.9539 16.1439 22.8147 15.8727 22.6259 15.6421C22.4654 15.4461 22.0951 15.0679 21.516 15.0679V17.0679ZM21.6367 17.8264C21.6367 17.828 21.637 17.8052 21.6443 17.7545C21.6512 17.7068 21.6625 17.6469 21.6788 17.5781C21.712 17.4384 21.7601 17.2865 21.8163 17.1525C21.8765 17.0092 21.9261 16.9339 21.9439 16.9123C21.9512 16.9035 21.9286 16.9341 21.8689 16.9715C21.8044 17.0118 21.6823 17.0679 21.516 17.0679V15.0679C20.9437 15.0679 20.5728 15.4324 20.4035 15.6367C20.211 15.8692 20.0711 16.1427 19.9722 16.3785C19.7812 16.8336 19.6367 17.4087 19.6367 17.8264H21.6367ZM21.6367 21.3433V17.8264H19.6367V21.3433H21.6367ZM12.6055 21.3433C12.6055 21.7631 12.7568 22.3408 12.9474 22.791C13.0468 23.0257 13.1859 23.297 13.3748 23.5276C13.5353 23.7236 13.9056 24.1018 14.4847 24.1018V22.1018C14.6606 22.1018 14.7872 22.1629 14.8504 22.2034C14.9094 22.2411 14.931 22.2712 14.9222 22.2605C14.9019 22.2358 14.8507 22.1567 14.7892 22.0114C14.7316 21.8752 14.6821 21.7219 14.6481 21.5824C14.6314 21.5135 14.6199 21.4542 14.6129 21.4076C14.6054 21.3577 14.6055 21.3378 14.6055 21.3433H12.6055ZM12.6055 17.8264V21.3433H14.6055V17.8264H12.6055ZM14.4847 15.0679C13.9125 15.0679 13.5415 15.4324 13.3723 15.6367C13.1797 15.8692 13.0399 16.1427 12.9409 16.3785C12.7499 16.8336 12.6055 17.4087 12.6055 17.8264H14.6055C14.6055 17.828 14.6058 17.8052 14.6131 17.7545C14.62 17.7068 14.6312 17.6469 14.6476 17.5781C14.6807 17.4384 14.7288 17.2865 14.7851 17.1525C14.8452 17.0092 14.8948 16.9339 14.9127 16.9123C14.92 16.9035 14.8974 16.9341 14.8377 16.9715C14.7731 17.0118 14.651 17.0679 14.4847 17.0679V15.0679ZM16.364 17.8264C16.364 17.4066 16.2126 16.8289 16.022 16.3787C15.9226 16.144 15.7835 15.8727 15.5947 15.6421C15.4341 15.4461 15.0638 15.0679 14.4847 15.0679V17.0679C14.3088 17.0679 14.1822 17.0067 14.119 16.9663C14.06 16.9286 14.0385 16.8985 14.0473 16.9092C14.0675 16.9339 14.1187 17.0129 14.1802 17.1583C14.2379 17.2945 14.2873 17.4478 14.3213 17.5873C14.338 17.6562 14.3496 17.7155 14.3565 17.7621C14.364 17.812 14.364 17.8319 14.364 17.8264H16.364ZM16.364 21.3433V17.8264H14.364V21.3433H16.364ZM14.4847 24.1018C15.0569 24.1018 15.4279 23.7373 15.5971 23.533C15.7897 23.3005 15.9295 23.027 16.0285 22.7912C16.2195 22.3361 16.364 21.761 16.364 21.3433H14.364C14.364 21.3417 14.3636 21.3645 14.3563 21.4152C14.3495 21.4628 14.3382 21.5228 14.3219 21.5916C14.2887 21.7313 14.2406 21.8832 14.1844 22.0172C14.1242 22.1605 14.0746 22.2358 14.0568 22.2573C14.0494 22.2662 14.0721 22.2355 14.1318 22.1982C14.1963 22.1579 14.3184 22.1018 14.4847 22.1018V24.1018Z" fill="black" mask="url(#path-1-outside-1)"/>
</g>
<defs>
<filter id="filter0_d" x="0" y="0" width="29.0001" height="30.6188" filterUnits="userSpaceOnUse" color-interpolation-filters="sRGB">
<feFlood flood-opacity="0" result="BackgroundImageFix"/>
<feColorMatrix in="SourceAlpha" type="matrix" values="0 0 0 0 0 0 0 0 0 0 0 0 0 0 0 0 0 0 127 0" result="hardAlpha"/>
<feOffset dy="1"/>
<feGaussianBlur stdDeviation="1"/>
<feColorMatrix type="matrix" values="0 0 0 0 0 0 0 0 0 0 0 0 0 0 0 0 0 0 1 0"/>
<feBlend mode="normal" in2="BackgroundImageFix" result="effect1_dropShadow"/>
<feBlend mode="normal" in="SourceGraphic" in2="effect1_dropShadow" result="shape"/>
</filter>
</defs>
</svg>
