<svg width="20" height="20" viewBox="0 0 20 20" fill="none" xmlns="http://www.w3.org/2000/svg">
<path d="M0.5 6C0.5 2.96243 2.96243 0.5 6 0.5H14C17.0376 0.5 19.5 2.96243 19.5 6V14C19.5 17.0376 17.0376 19.5 14 19.5H6C2.96243 19.5 0.5 17.0376 0.5 14V6Z" fill="#FF5E56"/>
<path d="M0.5 6C0.5 2.96243 2.96243 0.5 6 0.5H14C17.0376 0.5 19.5 2.96243 19.5 6V14C19.5 17.0376 17.0376 19.5 14 19.5H6C2.96243 19.5 0.5 17.0376 0.5 14V6Z" fill="url(#paint0_linear)"/>
<path d="M0.5 6C0.5 2.96243 2.96243 0.5 6 0.5H14C17.0376 0.5 19.5 2.96243 19.5 6V14C19.5 17.0376 17.0376 19.5 14 19.5H6C2.96243 19.5 0.5 17.0376 0.5 14V6Z" stroke="#FF5E56"/>
<path d="M0.5 6C0.5 2.96243 2.96243 0.5 6 0.5H14C17.0376 0.5 19.5 2.96243 19.5 6V14C19.5 17.0376 17.0376 19.5 14 19.5H6C2.96243 19.5 0.5 17.0376 0.5 14V6Z" stroke="url(#paint1_linear)"/>
<path d="M7.45455 13.7015L4.11364 10.2537L3 11.403L7.45455 16L17 6.14925L15.8864 5L7.45455 13.7015Z" fill="white"/>
<defs>
<linearGradient id="paint0_linear" x1="20" y1="0.798563" x2="-7.38102" y2="7.95678" gradientUnits="userSpaceOnUse">
<stop stop-color="#DC3131"/>
<stop offset="0.932292" stop-color="#FF4F4F" stop-opacity="0"/>
</linearGradient>
<linearGradient id="paint1_linear" x1="20" y1="0.798563" x2="-7.38102" y2="7.95678" gradientUnits="userSpaceOnUse">
<stop stop-color="#DC3131"/>
<stop offset="0.932292" stop-color="#FF4F4F" stop-opacity="0"/>
</linearGradient>
</defs>
</svg>
